<svg width="1127" height="287" viewBox="0 0 1127 287" fill="none" xmlns="http://www.w3.org/2000/svg">
<path d="M298.135 12.1909H373.838L329.869 120.011H279.782L298.135 12.1909Z" fill="#222222"/>
<path d="M535.263 66.6106C559.988 66.6106 581.841 77.3998 596.369 93.9679C586.978 112.751 577.586 131.534 577.586 159.709C575.081 186.096 576.391 200.438 582.282 225.451C589.064 243.611 596.139 256.199 615.937 283.015H540.998V167.931C540.998 155.696 537.812 146.137 531.44 139.255C525.068 132.118 516.529 128.55 505.823 128.55C494.608 128.55 485.814 132.118 479.442 139.255C473.069 146.137 469.883 155.696 469.883 167.931V283.015H394.944V68.5223H469.883V99.1096C476.51 89.4236 485.432 81.6493 496.647 75.7868C507.862 69.6693 520.734 66.6106 535.263 66.6106Z" fill="#222222"/>
<path d="M589.386 175.578C589.386 153.402 593.337 134.03 601.238 117.462C609.395 100.894 620.483 88.1492 634.502 79.2279C648.521 70.3067 664.07 65.846 681.147 65.846C694.912 65.846 707.147 68.7773 717.852 74.6399C728.813 80.2475 737.351 88.0218 743.469 97.9626V0.0834961H818.79L817.074 79.8804C787.377 111.052 779.211 133.71 779.507 183.188C783.905 225.111 793.667 246.669 818.79 283.015H743.469V253.193C737.606 263.134 729.322 271.035 718.617 276.898C707.911 282.761 695.294 285.692 680.765 285.692C663.687 285.692 648.139 281.231 634.12 272.31C620.355 263.389 609.395 250.644 601.238 234.076C593.337 217.253 589.386 197.753 589.386 175.578ZM743.851 175.578C743.851 161.813 740.028 150.981 732.381 143.079C724.989 135.177 715.813 131.226 704.853 131.226C693.637 131.226 684.334 135.177 676.942 143.079C669.55 150.726 665.854 161.559 665.854 175.578C665.854 189.342 669.55 200.302 676.942 208.459C684.334 216.361 693.637 220.312 704.853 220.312C715.813 220.312 724.989 216.361 732.381 208.459C740.028 200.557 743.851 189.597 743.851 175.578Z" fill="#222222"/>
<path d="M968.933 136.23C968.933 166.214 968.933 178.493 968.933 190.872H866.415C867.18 202.597 870.366 211.391 875.974 217.253C881.836 222.861 889.228 225.665 898.15 225.665C910.639 225.665 919.561 220.057 924.913 208.842H968.553C968.553 225.126 968.933 230.147 968.933 248.93C968.933 260.113 963.912 269.124 949.383 275.751C934.854 282.378 918.796 285.692 901.208 285.692C880.052 285.692 861.19 281.231 844.622 272.31C828.309 263.389 815.437 250.644 806.005 234.076C796.829 217.508 792.241 198.009 792.241 175.578C792.241 153.147 796.829 133.775 806.005 117.462C815.182 100.894 827.926 88.1494 844.24 79.2282C860.808 70.3069 879.797 65.8463 901.208 65.8463C922.364 65.8463 941.099 70.1794 957.412 78.8458C972.035 87.2884 968.933 84.5762 968.933 108.055C968.933 131.534 968.933 112.751 968.933 136.23ZM932.942 154.549C932.942 145.373 929.884 138.236 923.766 133.138C917.649 127.785 910.002 125.109 900.826 125.109C891.65 125.109 884.13 127.658 878.268 132.756C872.405 137.599 868.582 144.863 866.798 154.549H932.942Z" fill="#222222"/>
<path d="M1057.8 106.374C1066.21 94.1391 1076.4 84.4532 1088.38 77.3162C1100.36 70.1791 1113.24 66.6106 1127 66.6106V146.52H1105.97C1089.66 146.52 1077.55 149.706 1069.65 156.078C1061.75 162.451 1057.8 173.539 1057.8 189.342V283.015H982.858V68.5223H1057.8V106.374Z" fill="#222222"/>
<path d="M154.466 13.4655V73.1106H74.9387V120.521H137.896V177.489H74.9387V286.497H0V13.4655L154.466 13.4655Z" fill="#115CBA"/>
<path d="M253.575 286.497V98.6637H178.441V286.497H253.575Z" fill="#115CBA"/>
<circle cx="216.008" cy="51.7054" r="37.5666" fill="#115CBA"/>
</svg>
